<?xml version="1.0" encoding="utf-8"?>
<!-- Generator: Adobe Illustrator 28.0.0, SVG Export Plug-In . SVG Version: 6.00 Build 0)  -->
<svg version="1.1" id="Layer_1" xmlns="http://www.w3.org/2000/svg" xmlns:xlink="http://www.w3.org/1999/xlink" x="0px" y="0px"
	 viewBox="0 0 499.4 422.8" style="enable-background:new 0 0 499.4 422.8;" xml:space="preserve">
<style type="text/css">
	.st0{fill:#1F1E2F;}
	.st1{fill:#BD8368;}
	.st2{fill:#302D32;}
	.st3{fill:#931840;}
	.st4{fill:#ECB450;}
	.st5{fill:none;stroke:#731332;stroke-width:1.1418;stroke-miterlimit:11.418;}
	.st6{fill:#EC9550;}
	.st7{fill:none;stroke:#EC9550;stroke-width:1.1418;stroke-miterlimit:11.418;}
	.st8{fill:none;stroke:#343B4F;stroke-width:1.1418;stroke-miterlimit:11.418;}
	.st9{fill:#DEDEDE;}
	.st10{fill:#CFCFCF;}
	.st11{fill:#F15606;}
	.st12{fill:#302213;}
	.st13{fill:#F86B24;}
	.st14{fill:#CC581E;}
	.st15{fill:#F07036;}
	.st16{fill:#D46330;}
	.st17{fill:#FF9953;}
	.st18{opacity:0.16;fill:#FFFFFF;enable-background:new    ;}
	.st19{fill:#DDE6CA;}
	.st20{fill:#CC272F;}
	.st21{fill:#B8232A;}
	.st22{fill:#75501B;}
	.st23{fill:#8BB43C;}
	.st24{fill:#6B8C2A;}
	.st25{clip-path:url(#SVGID_00000168820489767696926700000013936594819394012077_);}
	.st26{fill:#DF7D2E;}
	.st27{opacity:0.18;clip-path:url(#SVGID_00000121266261476027821030000013014948889986809534_);}
	.st28{fill:#FFC291;}
	
		.st29{clip-path:url(#SVGID_00000008128470691598458520000000425078972855866246_);fill:none;stroke:#B06324;stroke-width:1.6183;stroke-linecap:round;stroke-linejoin:round;stroke-miterlimit:11.418;}
	.st30{fill:#70923C;}
	.st31{fill:#5E7535;}
	.st32{fill:#91B056;}
	.st33{fill:#F0C72F;}
	.st34{opacity:0.17;fill:#FFFFFF;enable-background:new    ;}
	.st35{fill:#DBAC2B;}
	.st36{fill:#D8EB96;}
	.st37{fill:#6B4D45;}
	.st38{fill:#DB4B3F;}
	.st39{fill:#C83F38;}
</style>
<path class="st0" d="M432.4,84.9c-0.2-2-1.7-9.1,1.4-11.3c1.8-1.3,3.3-1.1,4.8,0.2c0,0,1.3-3.1,5.7-2.2c6,1.2,4.6,5.8,4.6,5.8
	s2.1-0.6,4,0.6c2.5,1.6,2.6,3.8,2.2,5.9c-0.4,2.1-2.1,2.4-2.1,2.4s2,1.2,2,3.1c-0.2,3.6-4.1,2-4.1,2s0.3,3.5-1.7,5
	c-3.8,2.9-7.5-0.8-7.5-0.8c-1.8,0.7-5.4-3.8-5.4-3.8L432.4,84.9z"/>
<path class="st0" d="M429.2,112.9c1.8-0.3,7.9-1.2,11.1-4.5c9-9.5,1.9-20.4-0.7-25c-4.2-7.3-11.9-7.6-11.9-7.6l-0.6,0
	c-2.9-0.5-8.8-1.6-13.2,0.8c-8.4,4.8-10.9,14.4-6.5,20.9C409.4,100.6,422.5,114,429.2,112.9z"/>
<path class="st1" d="M441.8,137.7c0-5.2-0.2-8.7-0.2-8.7s-7.3-2-9.5-6.3c-3.2-6.2,0.9-19.9,0.9-19.9l-15.3,7.1
	c0,0,3.1,13.1-4.6,16.5c-3.2,1.4-4.5,2.7-4.5,2.7s-2,3.9-2.2,9.3C418.1,139.4,430,138.7,441.8,137.7L441.8,137.7z M412.7,384.2
	c0,0-2.1,9.2-2.1,13.5c0.1,4.3,0.4,4.7-0.4,6.5c-0.4,0.8-10.4,3.5-13.2,3.7c-3.4,0.3-5.9-0.7-5.9-0.7s9.4-7.8,10.1-14.9
	c0.7-7.1,1.5-19.2,1.5-19.2L412.7,384.2z"/>
<path class="st2" d="M411.7,413.7l-0.5-11.7c0,0-4.8,3.6-8.9,4.4c-5.2,1-7.4-2.8-7.4-2.8s-7.7,6-11.1,8.7c-4.3,3.4,5.7,2.1,11.2,1.5
	c5.4-0.6,10.2-2.6,10.2-2.6l1.3,2.6H411.7z"/>
<path class="st3" d="M398.8,202.9c0,0,7.4,6.5,21.2,2.5l1.2,115.7l-5.1,66.2c0,0-9.9,5-16.8-0.5c0,0-1.8-48.7-2.3-56.7
	c-0.7-11.6-0.1-57-0.8-63.7C392.4,230,398.8,202.9,398.8,202.9L398.8,202.9z"/>
<path class="st1" d="M447.5,384.2c1,9.2,0.6,9.1,1.1,13.5c0.5,4.2,2.2,4.7,1.4,6.5c-0.4,0.8-11.1,3.5-14,3.7
	c-3.4,0.3-5.9-0.7-5.9-0.7s7.3-5.7,8-12.7c0.7-7.1,0.4-21.3,0.4-21.3L447.5,384.2z"/>
<path class="st2" d="M450.7,413.7l-0.5-11.7c0,0-7.2,3.5-11.3,4.3c-5.2,1-5.9-2.6-5.9-2.6s-6,5.1-9,8.1c-2.7,2.7,4.6,2.6,10,2
	c5.4-0.6,10.2-2.6,10.2-2.6l1.3,2.6L450.7,413.7z"/>
<path class="st3" d="M412.5,205.5l35.4-0.5c1.2,6.6,4.9,15.6,5.3,30.9c0.3,8.6-1.9,26.6-3.2,40.4c-2.1,23.3-0.5,45.8-0.5,45.8
	l0.5,65.5c0,0-7,4.1-14.2-0.2c0,0-10-48.4-10.5-56.4c-0.7-11.6-9.9-53.4-11.2-78.6L412.5,205.5z"/>
<path class="st1" d="M410.8,82.3c-0.7,2.9-0.7,10.4-1.3,15.8c-0.3,2.7-1.5,6.9,0.5,11.8c1.2,3.1,3.6,6.9,6.8,7.4
	c2.7,0.4,5.2-0.6,8.1-2.4c4.6-2.8,7-7.1,8.1-10.2c1.2-3.1,1.3-9.1,0.5-15.3c-0.8-6.2-4.5-8.9-8.9-10
	C420.2,78.3,410.8,82.3,410.8,82.3L410.8,82.3z"/>
<path class="st0" d="M424.2,92.9c-5.8-5.3-6.8-9.9-6.8-15c0,0,6-2.7,12.3,1.6c12.9,9,8.1,14.8,6.9,21.1
	C434.5,95.7,430.1,98.2,424.2,92.9L424.2,92.9z"/>
<path class="st0" d="M423.7,78c-2.8,0.1-11.1,4.9-13.2,10.5c-2.6,7-2-1.8-2-1.8l0.3-3.9c0,0,6.4-6.9,11.1-6.1
	C424.5,77.5,423.7,78,423.7,78z"/>
<path class="st1" d="M330,136.6c0.1,0.1,10.7,10,26.3,16.9c0,0,6.3-1.4,8.9-2.4c8.2-3.2,32.6-14.9,32.6-14.9s-0.7,1.1,1.8,6.9
	c2.5,5.7-2.1,14-2.1,14s-23.2,7.9-36.8,10.8c-1.3,0.3-4.6,1.5-9.4-1.4c-11.8-7-25.9-27.2-25.9-27.2C325,138.9,329.4,136.3,330,136.6
	L330,136.6z"/>
<path class="st4" d="M383,162.1c0.9,1.5,2.3,1.4,3.5,2.9c10.2-3.1,17.4-4.8,17.4-4.8s6.4-12.9,5.3-19.5c-0.7-3.8-1.4-7.6-2.1-11.3
	c0,0-18.6,11-31.5,17.1C377.4,151.9,380,157.2,383,162.1L383,162.1z"/>
<path class="st5" d="M438.4,230l-4-23.9 M401.8,204.7l-3,19.2"/>
<path class="st6" d="M381,143c-2.7,1.5-5.5,2.9-8.3,4.2c1.8,5.5,4.4,10.8,7.4,15.7c1,1.6,2,3.1,3.1,4.5c3.9-1.2,7.8-2.5,11.7-3.8
	C389.2,157.6,384.5,150.4,381,143L381,143z"/>
<path class="st4" d="M400.1,155.2c-1.1,3.1-0.5,8.4,3,13.3c0,0,0.1,4.7-0.5,8.7c-0.4,2.8-1.3,15.8-2.3,18.9
	c-4.7,14.5-3.4,17.5-3.4,17.5s7.7,2.5,21.8,4.2c17.9,2.1,36.2,0,36.2,0s3.2-3.4-1.3-12c-2.2-4.2-5.3-20.1-4.7-25.4
	c2.3-19.7,6.8-18.7,7.1-22.2c0.5-6.9,1.5-17.4-1.7-21.9c-3.5-5-20.4-11.5-20.4-11.5s-6.1,2.8-12.2,2.8c-5.4,0-7.9-1.9-7.9-1.9
	l-6.8,3.6C407.1,129.3,404.5,143,400.1,155.2L400.1,155.2z"/>
<path class="st7" d="M404,140.8c-0.9,4.9-1.7,8.3-3.9,14.4c-1.1,3.1-0.5,8.4,3,13.3c0,0,0.1,4.7-0.5,8.7"/>
<path class="st8" d="M429.7,197.4l1.5,8.9"/>
<path class="st5" d="M415.2,234.2c0,0,0.4,22.7,1.8,35.4c2.2,19.8,6.6,45.1,6.6,45.1"/>
<path class="st9" d="M248.8,51.2c-0.8,1.3-0.5,2.9,0.8,3.8l50.8,34.9c0.2,0.2,0.3,0.5,0.1,0.8l-1.2,1.9c-1.1,1.7-3.3,2.2-5,1.1
	l-49.7-30.9c-1.3-0.8-3-0.5-3.8,0.8c-0.8,1.3-0.5,3,0.8,3.8l48.7,32.5c1.7,1.1,2.1,3.4,1,5.1c-1.1,1.6-3.3,2.1-4.9,1.1l-49.7-30.9
	c-1.3-0.8-3-0.4-3.8,0.9c-0.8,1.3-0.4,2.9,0.8,3.7l48.7,32.5c1.7,1.1,2.1,3.4,1,5l-1.2,1.9c-0.2,0.3-0.5,0.3-0.8,0.2l-52.8-31.8
	c-1.3-0.8-2.9-0.4-3.7,0.9l-0.1,0.1c-0.8,1.2-0.5,2.9,0.7,3.8l55.3,38.8c7.4,5.2,16.7,6.9,25.5,4.5c8.9-2.4,18.4-0.6,25.9,4.8
	l144.4,101.5c6.6,4.8,15.9,3.1,20.3-3.8c4.4-6.9,2.2-16.1-5-20.1l-151.4-90.7c-8-4.5-13.6-12.5-15.1-21.6
	c-1.5-8.9-6.9-16.7-14.7-21.3l-58.2-34.3C251.3,49.5,249.7,49.8,248.8,51.2L248.8,51.2z"/>
<path class="st10" d="M307.5,85.5c-2.1,12-11.7,17.3-21,23.9c-1.4,1-2.7,2-4,3.1c-0.1-0.1-0.2-0.1-0.2-0.2l-48.7-32.5
	c-1.3-0.9-1.6-2.6-0.7-3.8c0.8-1.2,2.5-1.6,3.7-0.8l49.7,30.9c1.7,1.1,4,0.6,5.1-1.1c1.1-1.7,0.6-3.9-1.1-5l-48.7-32.5
	c-1.3-0.9-1.6-2.6-0.7-3.8c0.8-1.2,2.5-1.6,3.7-0.8l49.7,30.9c1.7,1.1,3.9,0.6,5-1.1l1.2-1.9c0.2-0.3,0.1-0.6-0.1-0.8l-50.8-34.9
	c-1.2-0.8-1.6-2.5-0.8-3.8l0.1-0.1c0.8-1.2,2.4-1.6,3.7-0.9l55.3,32.6C307.8,83.7,307.7,84.6,307.5,85.5L307.5,85.5z M224.7,88.5
	L224.7,88.5c0.9-1.3,2.5-1.7,3.8-1l48.6,29.3c-1.5,1.2-3.1,2.3-4.7,3.3c-1.3,0.8-2.6,1.6-4,2.3l-43-30.2
	C224.3,91.4,223.9,89.8,224.7,88.5L224.7,88.5z M476.1,238.2c5.4,1.1,10.9,1.5,16.4,0.9c1.4-0.1,2.7-0.3,4.1-0.6
	c-4.5,6.5-13.6,8.1-20,3.4l-6.9-4.8C471.8,237.4,473.9,237.8,476.1,238.2L476.1,238.2z"/>
<path class="st11" d="M205.5,50.1c-5.9-7,0-14.8,7.4-20c5.7-4,12.8-5.3,18.3-5.5c0,0,1.9-4.2,8.6-8.1c9.5-5.6,25.1-8.3,30.3,4.9
	c5.2,13.2,0.8,26.8-17.1,34C235.1,62.5,211.3,57,205.5,50.1L205.5,50.1z"/>
<path class="st12" d="M232.5,39.3c-5.9-19.6-19.2-27-24-28c0,0-1.3-7.3,4.6-9.9c0,0,7.5,4.7,13.9,15.3s8.6,21.1,8.6,21.1L232.5,39.3
	z"/>
<path class="st13" d="M221.1,45.7c-12.9-5.2-24,0.9-28.1,11.8c-3.5,9.2,1.7,25.9,15.2,42.9c13.5,17,33.4,26.6,45.2,19.9
	c11.8-6.8,7.4-33.8,7.4-33.8L221.1,45.7z"/>
<path class="st14" d="M260.7,86.5l-39.6-40.8c-2.3-0.9-4.5-1.5-6.7-1.7c-7,17.7,6.5,36.8,17.2,50.2c5.3,6.6,17.7,18.6,13.7,28.3
	c2.9-0.1,5.6-0.8,8-2.2C265.1,113.6,260.7,86.5,260.7,86.5L260.7,86.5z"/>
<path class="st15" d="M247.4,31.5c2.7-16.5,20.6-22.7,27.9-19.5c14.9,6.6,23.3,23.8,28.5,42.9c5.2,19.1,5.4,32.6-3.7,37.6
	c-9.1,5-22.9,2.8-33.3-13.3C256.5,63.3,247.4,31.5,247.4,31.5L247.4,31.5z"/>
<path class="st16" d="M302.1,84.5c-15.3-3.5-18.3-24.7-23.7-36.7c-2.7-6-7-11.4-11.4-16.3c-2.9-3.2-8.8-10.1-14.2-11.7
	c-2.6,3-4.7,6.9-5.4,11.6c0,0,9.1,31.8,19.5,47.8c10.4,16,24.2,18.3,33.3,13.3c3.2-1.8,5.3-4.7,6.3-8.5
	C305.1,84.7,303.6,84.9,302.1,84.5z"/>
<path class="st17" d="M218.8,36.6c-7.2,9.8-6.8,27.1,13.4,51.4c20.1,24.3,40.4,27.4,48.9,17.1c8.5-10.3,6.2-30.3-7.8-57.2
	c-11.3-21.8-22.2-26.6-32.7-24.4C230.2,25.7,222.4,31.8,218.8,36.6L218.8,36.6z"/>
<path class="st1" d="M415.2,194.2c0.3,0.1,4.4-1.5,4.6-1.4c7.3,0.1,20.1-6,30.1-10.4c0,0-5.2-18.5-8.2-26.3
	c5.9-2.7,9.7-5.1,14.6-9.3c1.2,3.1,2.2,7.1,3.2,12.1c2.9,13.6,6.9,29,4.9,32.2c-2.5,3.9-8,5.2-16.6,6.4c-15.7,2.3-26.9,3.7-29.1,4
	C418.7,198.4,414.9,197.1,415.2,194.2L415.2,194.2z"/>
<path class="st1" d="M421.8,192.7c0,0-4.7-1.1-5.9-0.6c-1.1,0.5-5,0.6-6.2,0.2c0,0-1.2,0.4-0.9,1.5l0.3,1.1c0,0-1,0.9-0.6,1.8
	c0.4,0.9,1,1.1,1,1.1s-0.4,1.4,0.4,2.1c0.8,0.7,1.5,0.8,1.5,0.8s0,1.1,1.1,1.7c1.2,0.5,2.4,2.9,5.6,0.9c3.1-2,7.4-2.7,7.4-2.7
	L421.8,192.7z"/>
<path class="st4" d="M462.2,161.6c-0.4-2.3-0.8-4.7-1.3-7c-2.9-13.6-6.6-18.4-6.6-18.4l-17.5,13c1.6,3.8,3.8,9.9,5.5,14.9
	C448.2,164.7,456.9,163.7,462.2,161.6L462.2,161.6z"/>
<path class="st6" d="M442.4,164.2c0,0,14.4-1.3,20.1-4.7l1.5,8.9c0,0-11.5,3.9-20,2.6L442.4,164.2z"/>
<path class="st7" d="M440.6,146c0,0,1.2,12.7,2.8,19.5"/>
<path class="st1" d="M310.8,121.1c0.3-0.8,1.3-0.9,1.9-0.4c0.3,0.3,0.7,1.2,1.3,2.3c-0.4-2-0.7-4.4,0.1-4.9c0.8-0.5,1.9,0.6,2.6,2.1
	c0.3-0.8,1-1.1,1.6-1c1,0.3,2.2,2.7,2.2,2.7s0.7-1.8,2.8-0.2c1.4,1,1.5,3.4,3.4,6.6c1.1,1.8,5.9,5.6,6.5,9c0.2,1.2,3.1,5.2,5.5,7.9
	c-3.9,0.1-6.4-1.6-10.3-2c-1.9-1.9-7.8-5.1-11.1-8.7c-0.2-0.3-0.4-0.5-0.6-0.8c-1.1-1.5-3.5-4.7-4.3-6.6
	C311.4,124.6,310.5,121.8,310.8,121.1L310.8,121.1z M434.1,97.8c0,0,1.1-2.5,2.5-0.8c1.4,1.7-0.4,5-2,6.4c-1.6,1.4-3.4,0.9-3.4,0.9
	L434.1,97.8z"/>
<path class="st18" d="M230.8,34.6c-6.5,0.5-10.5,14.4-5.1,28.5c5.4,14.1,19.2,34.3,24.6,30c5.5-4.3-3.1-22.8-4.8-33
	C241.8,36.7,235.4,34.2,230.8,34.6z M272.1,17.2c-7.2,0.5,1.5,5.6,8,18.1c6.6,12.5,15.6,36.7,16,24.4
	C296.6,47.4,284.7,16.3,272.1,17.2z"/>
<path class="st19" d="M16.1,413.6c0-4.5,105.7-8.2,236.2-8.2s236.2,3.7,236.2,8.2c0,4.5-105.7,8.2-236.2,8.2S16.1,418.2,16.1,413.6z
	"/>
<path class="st20" d="M234.8,191.1c-16.9,22.4-15.1,53.7-4.1,66.1c4.9,5.5,8.8,6.2,11.2,8c3.4,2.6,8.3,7.8,12,9.8
	c7,3.9,17.1,3.3,27.3,0.1c2.8-0.9,5.6-2,8.4-3.2c10.9-4.8,20.9-12.1,26.5-19.5c4.6-6.1,9.8-15.9,9.6-26.8c-0.3-16.6-7.1-23-17-30.3
	c-2.7-2-5.6-4-8.6-6.3c-3.1-2.3-5.8-4.6-8.3-6.6c-4.8-3.8-8.9-6.9-13.7-8.6c-5.5-1.9-11.9-2-21.2,0.9c-4.8,1.5-12.7,6.2-18.7,12.3
	C237,188.4,235.9,189.7,234.8,191.1L234.8,191.1z"/>
<path class="st21" d="M324.7,216.3c-0.6,2.5-1.4,4.9-2.6,7.2c-6.8,13.7-22.5,22.2-37.6,22.4c-16.8,0.2-32.3-9.3-46.9-16.4
	c-4.9-2.4-9.9-4.7-15-6.3c-1.3,14,1.9,26.9,8.2,33.9c4.9,5.5,8.8,6.2,11.2,8c3.4,2.6,8.3,7.8,12,9.8c7,3.9,17.1,3.3,27.3,0.1
	c2.8-0.9,5.6-2,8.4-3.2c10.9-4.8,20.9-12.1,26.5-19.5c4.6-6.1,9.8-15.9,9.6-26.8C325.6,222.1,325.3,219.1,324.7,216.3L324.7,216.3z"
	/>
<path class="st22" d="M295.4,189.4c-1,2.1,2,4.5,3.6,5c3.5,1.1,4.4-3.3,4.5-3.7c0.4-1.2,1-5.4,2.9-8.3c2.1-3.2,6.1-7.1,7.1-11
	c0.9-3.4-4.3-3.7-4.7-2.4c-1.7,6-2.7,11.6-7.2,15.3C298.7,186.8,296.5,187.3,295.4,189.4z"/>
<path class="st23" d="M141.7,166.4c-2-2.5-10.6-29.4-18.1-39.1c0,0,5.2-3.4,4.3-11c-0.8-7.1-9.1-5-10-3.3c0,0,4.2-10.7-1.8-15.8
	c-4.7-4-8.2,0-8.3,4.6c0,0-6.1-12.1-14.7-19.2c-8.5-7.1-16.2-5.2-11,4.8c5.2,10,15.4,18,15.4,18s-8.6-1.3-8,4.4
	c0.6,5.7,16,8.1,16,8.1s-10.1,3.1-5.3,8.3c4.8,5.2,18.6,3.4,18.6,3.4s16.2,25.6,20.3,44.3L141.7,166.4z"/>
<path class="st23" d="M137.6,154.1c-0.1-3.2-11.5-29-12.2-41.3c0,0-6.2,0.9-10.5-5.4c-4.1-5.9,3.5-9.8,5.3-9.1c0,0-10.2-5.3-9.1-13
	c0.9-6.1,6.1-5.4,9.3-2.1c0,0-3.4-13.1-1.7-24.1c1.7-11,8.7-14.6,11.4-3.7c2.7,10.9,0.4,23.7,0.4,23.7s5.5-6.6,8.9-2
	c3.4,4.7-6.7,16.7-6.7,16.7s9.6-4.4,9.5,2.7c-0.2,7.1-11.6,14.9-11.6,14.9s4.8,29.9,14.1,46.6L137.6,154.1z"/>
<path class="st24" d="M134.5,150.9c-0.6-3.7-16.3-33.1-19-47.2c0,0-8.7,2.9-14.8-3.8c-5.7-6.3,2.6-11.6,4.8-11
	c0,0-12.8-4.9-12.6-13.9c0.2-7.1,6.4-6.9,10.6-3.5c0,0-6-14.7-5.7-27.5c0.3-12.8,8-17.8,12.9-5.6s4.1,27.1,4.1,27.1
	s5.5-8.3,10.2-3.3c4.7,5-5.3,19.9-5.3,19.9s10.7-6.2,11.5,2c0.9,8.2-11.4,18.4-11.4,18.4s10.2,33.7,23.6,51.8L134.5,150.9z"/>
<path class="st23" d="M105.5,49c0,0,8,71.2,42.8,116.6l-10.9-4.3C137.4,161.3,112.4,124,105.5,49L105.5,49z"/>
<g transform="matrix(1.1418 0 0 1.1418 -33.178 -111.091)">
	<g>
		<defs>
			<path id="SVGID_1_" d="M170.6,218.2c9.8,8.4,15.9,35.2,20.2,52.2c8.8,34.7,32.7,116.2,38.9,152.1c2.4,13.9-8.5,13.9-14.5,4.5
				c-5.2-8.3-57-110.1-77.3-151c-6.4-12.8-14.4-29-11.3-42.4C130.2,218.3,152.9,203.1,170.6,218.2L170.6,218.2z"/>
		</defs>
		<clipPath id="SVGID_00000050623648763466815360000007324689942922795188_">
			<use xlink:href="#SVGID_1_"  style="overflow:visible;"/>
		</clipPath>
		<g style="clip-path:url(#SVGID_00000050623648763466815360000007324689942922795188_);">
			<path class="st26" d="M170.6,218.2c9.8,8.4,15.9,35.2,20.2,52.2c9.6,37.8,40.6,121.6,44.9,152.9c1.2,8.5-16.5,13.9-18,13
				c-8.5-4.8-59.5-119.4-79.8-160.3c-6.4-12.8-14.4-29-11.3-42.4C130.2,218.3,152.9,203.1,170.6,218.2L170.6,218.2z"/>
		</g>
	</g>
	<g>
		<defs>
			<path id="SVGID_00000101783629032542260330000012671221349869861554_" d="M170.6,218.2c9.8,8.4,15.9,35.2,20.2,52.2
				c8.8,34.7,32.7,116.2,38.9,152.1c2.4,13.9-8.5,13.9-14.5,4.5c-5.2-8.3-57-110.1-77.3-151c-6.4-12.8-14.4-29-11.3-42.4
				C130.2,218.3,152.9,203.1,170.6,218.2L170.6,218.2z"/>
		</defs>
		<clipPath id="SVGID_00000167375461815610696400000003292989923886386585_">
			<use xlink:href="#SVGID_00000101783629032542260330000012671221349869861554_"  style="overflow:visible;"/>
		</clipPath>
		<g style="opacity:0.18;clip-path:url(#SVGID_00000167375461815610696400000003292989923886386585_);">
			<path class="st28" d="M166.2,229c20.3,27.5,22.8,65.4,31.6,97.7l19.3,70.9c-11.3-22.8-22.2-45.8-32.6-69.1
				c-11.4-25.6-23.4-51-32.9-77.3c-2.6-7.2-7-19-0.8-25.7C156,219.6,161.4,222.5,166.2,229L166.2,229z"/>
		</g>
	</g>
	<g>
		<defs>
			<path id="SVGID_00000159463861755905886540000007547991976703067315_" d="M170.6,218.2c9.8,8.4,15.9,35.2,20.2,52.2
				c8.8,34.7,32.7,116.2,38.9,152.1c2.4,13.9-8.5,13.9-14.5,4.5c-5.2-8.3-57-110.1-77.3-151c-6.4-12.8-14.4-29-11.3-42.4
				C130.2,218.3,152.9,203.1,170.6,218.2L170.6,218.2z"/>
		</defs>
		<clipPath id="SVGID_00000129917628673494657430000015873016036801694122_">
			<use xlink:href="#SVGID_00000159463861755905886540000007547991976703067315_"  style="overflow:visible;"/>
		</clipPath>
		
			<path style="clip-path:url(#SVGID_00000129917628673494657430000015873016036801694122_);fill:none;stroke:#B06324;stroke-width:1.6183;stroke-linecap:round;stroke-linejoin:round;stroke-miterlimit:11.418;" d="
			M125.4,255.6c0,0,13.1-7.9,29.9-12.1 M171.8,256c0,0,9.2-4.9,18.4-5.5 M160.5,296.4c0,0,17.1-10.2,34.2-12.4 M150.1,275.2
			c3.5-2,7.5-3.3,11.5-4.2"/>
	</g>
</g>
<path class="st30" d="M360.9,262.1c-18-2.2-26.1,11.3-33.3,8.9c-3.3-1.1-6.9-6.5-11-8.2c-4.9-2-10.2,0-13.3,4.4
	c-5.7,8-5.7,22.7-17.4,20.2c-4.8-1-8.8-5.1-13.3-6.2c-6.3-1.6-12.7,0.9-15.6,9.8c-2.6,8.1-1.3,13.5-0.5,18.7
	c0.6,3.7,1.2,7.4-0.1,10.5c-0.4,1-1,2-1.8,2.8c-6.9,7.1-20.9,21.1-24.1,27.8c0,0-0.9,3.6,1.5,5.6c0.7,0.6,1.7,1.1,3.1,1.3
	c6.2,1.1,9.1-12.1,14.5-19.4c12.6-16.9,19.2-9.1,26-6.4c5.8,2.3,13.5,4,21.6,1.7c11.9-3.4,5.7-15.8,9.5-20.5
	c1.5-1.8,9.9,0.2,13.4,0.4c12.6,0.7,19.8-3.8,17.5-14.4c-2.4-11,6.4-9.7,19.6-11.5C376,285.1,378.9,264.3,360.9,262.1z"/>
<path class="st31" d="M346.8,275.8c-0.9,0.2-55.4,15.8-90.4,44.5c-0.4,1-1,2-1.8,2.8c-6.9,7.1-20.9,21.1-24.1,27.8
	c0,0-0.9,3.6,1.5,5.6c14.7-21,39.1-44.3,65.6-57.5C331.1,282.2,346.6,275.9,346.8,275.8z"/>
<path class="st32" d="M364.1,212.3c-1.4,18.6-17.1,24-16.1,31.8c0.5,3.5,5.3,8.2,6.2,12.7c1.1,5.3-2.1,10.2-7.3,12.5
	c-9.4,4.1-24.7,1.2-24.5,13.5c0.1,5.1,3.5,9.9,3.7,14.6c0.3,6.7-3.6,12.6-13.3,13.7c-8.9,1-14.2-1.4-19.5-3.2
	c-3.8-1.3-7.4-2.6-10.9-2c-1.1,0.2-2.2,0.6-3.2,1.3c-8.8,5.5-26.2,16.9-33.7,18.7c0,0-3.9,0.2-5.5-2.7c-0.5-0.8-0.8-1.9-0.7-3.4
	c0.1-6.4,14.4-6.7,23-10.7c20.1-9.3,13.4-17.5,11.9-24.9c-1.2-6.3-1.4-14.4,2.6-22.1c5.9-11.4,17.6-2.5,23.2-5.4
	c2.2-1.1,1.8-10,2.4-13.5c1.8-12.8,8-19.2,18.5-14.7c10.9,4.6,11.3-4.5,15.9-17.4C343.3,192.5,365.5,193.7,364.1,212.3L364.1,212.3z
	"/>
<path class="st30" d="M347,223.7c-0.4,0.9-27.7,52.6-64.6,82.2c-1.1,0.2-2.2,0.6-3.2,1.3c-8.8,5.5-26.2,16.9-33.7,18.7
	c0,0-3.9,0.2-5.5-2.7c24.8-10.6,53.9-30.6,73-54.6C337.1,238.3,346.8,223.9,347,223.7z"/>
<path class="st33" d="M183.1,299c2.9,10.2,8.2,18.7,15.1,25.2c14.7,14,36.7,19,58.1,12.1c8.1-2.6,15.3-6.6,21.4-11.7
	c15.5-13.1,23.3-33.2,18.5-54.6c-2.7-11.9-8.7-22-16.7-29.8c-3.4-3.2-7.1-6.1-11.1-8.5c-6.3-3.7-11.8-8.8-15.5-15.2c0,0,0-0.1,0-0.1
	c-7-11.9-16.4-20.3-25.8-23.3c-4.6-1.5-9.2-1.7-13.6-0.4c-6.3,1.8-11.3,6.4-14.9,12.8c-4.1,7.4-6.2,17.4-5.9,28.3
	c0.2,7.4-1.7,14.7-5.1,21.2C180.7,268.1,178.7,283.7,183.1,299L183.1,299z"/>
<path class="st34" d="M224.3,218.7c-1.4,6.8,1,34.6,13.5,43.1c12.6,8.5,34.2,13.4,23.7-12.4C251.1,223.7,226.1,209.9,224.3,218.7
	L224.3,218.7z"/>
<path class="st35" d="M192.5,233.9c-0.3-9.7,1.3-18.5,4.5-25.5c1.3,26.6,4.7,30.7,9.6,42.1c11,26,24.4,41.3,41.4,43.8
	c19.5,2.9,44.5-2.8,49.5-13.5c0.6,17.3-7,33.1-19.8,43.9c-6,5.1-13.3,9.2-21.4,11.7c-21.4,6.8-43.4,1.9-58.1-12.1
	c-6.9-6.5-12.2-15.1-15.1-25.2c-4.4-15.3-2.4-30.9,4.3-43.9C190.8,248.6,192.7,241.3,192.5,233.9z"/>
<path class="st22" d="M208,196.2c-1.2-7-4.6-24.5-8.5-33.8c-0.9-2.2-0.4-4.8,1-5l8.8-1.5c1.5-0.3,2.9,2.2,2.6,4.6
	c-0.8,7.7-1.9,22.6,0.1,35.1c0.3,2-0.4,3.8-1.6,3.8C209.3,199.3,208.3,198,208,196.2L208,196.2z"/>
<path class="st30" d="M84.2,219.4c1.2,10.6,3.5,19.5,7.6,29.4c2,4.9,8.8,15.1,4.3,20.4c-3.3,3.8-18.6,2.4-23.5,2.5
	c-11.7,0-16.7-7.4-26.7-11.5c-5.7-2.3-10.7,0-16.4-1.3c-12-2.6-8.2-9.4-14.7-15.6c-5.2-4.9-14.6-2.1-14.3-13.1
	c0.1-3.8,4.5-4.5,4.8-8.1c0.2-3.6-4.2-6.9-4.4-10.4c-0.6-11.5,6.4-9.1,12.3-13.8c1.8-1.4,3.7-2.4,5-3.7c4.2-3.9-4-7.1,5.4-9.1
	c3.5-0.7,7.7,3.6,11.8,2.9c2-0.4,2.8-4.5,4.9-5.2c1.9-0.7,16.9-2.3,18.7-1.5c3.7,1.8,2.7,4.3,4.7,8.5c3.1,6.8,4,12.1,10.2,16.8
	C83,213.3,82.9,207.1,84.2,219.4L84.2,219.4z"/>
<path class="st30" d="M99.5,191.9c-0.8,10.1,10.7,25.6,6.6,34.5c-4.1,9-13.4-3.8-19.6-5.4c-11.4-2.9-14-0.4-22.3-12.3
	c-6.7-9.6-11.3-16-11.8-27.3c-0.2-4.8-1.2-21,1.1-24.8c3.5-5.6,6.2-2.3,10.6-2.4c-1.8,0,14,3,11.2,2
	C89.8,161.4,100.9,174.4,99.5,191.9L99.5,191.9z"/>
<path class="st23" d="M158.3,338.4c10.2,15.9-16,12.7-23,6.9c-14.1-11.7-20.4-29.9-36.9-38.2c-8.7-4.4-26.5-3-34.7-8.4
	c-6.6-4.3-10.5-13.1-18.2-15.5c-10.2-3.2-7.8-0.4-17.6-7.4c-6-4.2-19.2-15.3-20-24.1c-0.9-10.2,7.2-7.7,12.8-11.2
	c3.2-2,1.8-7.5,6.4-8.6c4.9-1.2,6.7,5.3,10.4,5.9c3,0.5,2.9,0.5,5.1,0.6c3.6,0.2,6-3.6,11-2.9c9.4,1.3,12.2,9.6,18.7,14.6
	c6.9,5.4,15.7,6.4,22.7,13c9,8.4,9.5,13.8,13.2,24.6C116.2,311.7,144.9,317.5,158.3,338.4L158.3,338.4z M123.9,194.1
	c1.5,6.5,5,8.9,8.5,13.8c8.3,12.2,6.6,18.6,6.8,32.1c0.3,25,22.6,41.1,29.8,63.8c1.1,3.5,5,19.2,0.5,21.5c-4.1,2.2-12-9.4-15.2-11.8
	c-13.1-10.2-21.9-22.8-34.5-33.7c-6.5-5.7-10.4-9.8-13-17.6c-2.2-6.5-1.5-11-6.2-16.1c-6.1-6.7-12.3-7.9-16.8-16.7
	c-3.7-7.3-11-21-10.4-29.3c0.5-6.2,5.8-14.3,7.1-20.8c1.7-8.7,1.5-19.6,12.3-19.8c9.7-0.2,13.4,10.8,18.9,17
	C117.9,183.5,121,183.9,123.9,194.1L123.9,194.1z"/>
<path class="st23" d="M120.9,243.7c2.4,7.8,7.6,14.1,10.1,21.8c2,6.3,1.5,12.5,2.8,18.8c2.8,13.5,10.4,22.8,18.5,33.6
	c-32.2,14.1-38.4-28-62.1-38.8c-13-5.9-25.8-5.3-35.8-17.3c-6.8-8.3-15.9-20.3-18.4-31c-2.1-8.8-0.5-9.7,3.5-15.7
	c1.7-2.5,3.7-2.3,5.1-5.4c1.3-3-0.5-7.1,0.4-10.4c3.7-13.1,16.7-8.9,27.4-8.2c15.2,1,17.2,12,27.4,23.4
	C109.6,225.3,116.3,228.6,120.9,243.7L120.9,243.7z"/>
<path class="st36" d="M133.8,239.1c2.5,10.8,0.2,17.4,5.9,27.7c7.1,12.9,16.1,16.8,26.1,26.6c13.8,13.4,24.5,35.8,3.4,46.5
	c-3.9-6-3.9-15-6.2-21.7c-3-8.9-7.5-16.4-12.8-24c-10.3-14.7-16.3-22.9-21.3-40.7c-7.9-28.1-34.6-23.9-47.2-58.4
	c5.1,8.5,11,15.8,18.5,22.1c3.1,2.6,17.4,10.1,17.2,12.3c0.9-8.7-22.5-31.3-26.4-39.9c6.3,9,16.4,15.2,23.8,23.1
	c4.5,4.8,3.9,7.9,6.6,14.1c2.9,6.5,5.9,12.7,7.5,12.4c3.9-0.6-4-24.2-4.5-24.9C127.8,217.8,132.1,224,133.8,239.1L133.8,239.1z
	 M168.2,342.7c-17.2,24.3-33.3,2.6-45.4-16.3c-6.9-10.7-14.4-18-25.8-23.3c-10-4.7-38.6-12.2-42.4-24.7c11.6,13.5,52.3,21,52.7,27.4
	c-3.4-7.7-19.4-15.7-29.3-20.6c-12-5.9-24.8-19.3-30.2-32.5c6.3,8.2,13,17.2,21.5,22.9c13.2,9,28,10.5,38.9,23.7
	c9.3,11.4,15.2,24.2,26.3,34c4.6,4,11,10.4,17,11.6C156.7,346,163.4,339.9,168.2,342.7L168.2,342.7z"/>
<path class="st36" d="M155,310.3c4.8,5.3,21.1,23.5,13.9,31.8c-7.6,8.8-23.3-5.6-28.6-10.7c-18.4-17.6-29.9-39.2-46.4-58.7
	c-15.6-18.6-29-36.4-40.6-58.5c7.4,11.8,15.3,23.3,24.6,33.5c4.8,5.2,40.9,51.3,46.4,48.6c3.4-1.7-21.7-34-25.2-40.1
	c-8.1-14.2-17.3-27.5-25.6-41.6c8,9.9,15.8,20,22.7,30.8c4.9,7.7,9.1,15.8,14.1,23.3c0.3,0.5,14.9,18.2,15,15.2
	c0.1-3-5.9-8.2-9.2-15.3c-2.3-4.9-5.9-16.3-8.2-21.3c-4.4-9.6-6.7-13.7-13.9-23.8c2.9,3.7,16.1,16.7,23.8,35.5
	C126.8,280.8,145.6,300.1,155,310.3L155,310.3z"/>
<path class="st37" d="M165.4,240.5c0,0,0.8-5.8,0.3-8.6c-0.5-2.8,0.1-4.8,0.1-4.8l2,0.6c0,0,0.2,3.8,0.9,7.3
	c0.7,3.5,0.6,7.9,0.6,7.9L165.4,240.5z"/>
<path class="st38" d="M155.8,320.8c16.9,1.8,31.9-3.1,41.1-14.8c4.9-6.2,8.2-14.3,9.4-24.4c3.2-29.1-20.2-40.2-46-43.1
	c-24.4-2.7-42.3,3.1-46.9,28.3c-0.3,1.5-0.5,3-0.7,4.5C109.6,300.4,130,317.9,155.8,320.8L155.8,320.8z"/>
<path class="st39" d="M150.9,308.6c-0.8-0.9-1.6-1.9-2.3-2.9c-22.1-9.5-31.2-37.6-24-60.3c-5.5,4.6-9.3,11.4-11.1,21.3
	c-0.3,1.5-0.5,3-0.7,4.5c-3.2,29.1,17.2,46.7,43,49.5c7.9,0.9,15.4,0.2,22.1-1.9C168.1,319.5,158.5,317.1,150.9,308.6L150.9,308.6z"
	/>
<path class="st30" d="M163.7,237.7c0,0-11.2-6.4-16.8-6.1c-5.6,0.3-15.3,4.4-20.1,1.5c0,0,2.2,9.5,15.4,11.4
	C155.4,246.4,163.7,237.7,163.7,237.7L163.7,237.7z"/>
<path class="st23" d="M163.7,237.7c-6.7-2.3-15.9-1.7-20.8,3.9c-4.9,5.7-7.5,14.2-7.5,14.2s10.2,0.1,18.7-4.2
	c8.5-4.2,13.8-3.7,16.9-7.5C174.1,240.4,163.7,237.7,163.7,237.7L163.7,237.7z"/>
<path class="st23" d="M168.3,239c0,0-0.5,8.8,10.2,13.2c10.6,4.4,24.9,1.3,24.9,1.3s-7.8-9.2-15.4-11.9
	C180.3,238.9,168.3,239,168.3,239z"/>
<path class="st10" d="M274,364.4H122.7v39.1c0,5.4,4.4,9.8,9.8,9.8h131.7c5.4,0,9.8-4.4,9.8-9.8L274,364.4L274,364.4z"/>
<path class="st9" d="M54.5,290.3C57.9,351.9,121,401,198.4,401s140.5-49.1,143.8-110.7H54.5z"/>
<path class="st10" d="M322.2,326.4c-17.8,20.8-42.2,35-67.3,45.1c-31.8,12.8-64.5,16.3-98.5,14.2c-14.4-0.9-28.5-2.8-42-6.5
	c23.6,13.7,52.6,21.8,84,21.8c75.9,0,138.1-47.3,143.6-107.3C337.1,305.4,330.7,316.4,322.2,326.4z"/>
</svg>
